<svg xmlns="http://www.w3.org/2000/svg" width="688" height="113" viewBox="0 0 688 113">
  <defs>
    <style>
      .cls-1 {
        fill: #213441;
      }

      .cls-1, .cls-2 {
        fill-rule: evenodd;
      }

      .cls-2 {
        fill: #b1b2b4;
      }
    </style>
  </defs>
  <path id="benchpress" class="cls-1" d="M215.785,58.743c0-4.9-3.457-8.641-8.353-10.8a10.894,10.894,0,0,0-4.32-.936,12,12,0,0,0-7.921,3.384,2.833,2.833,0,0,1-1.8.936c-0.936,0-1.152-1.224-1.368-2.088-1.3-6.265-4.969-12.6-7.489-15.985a1.168,1.168,0,0,0-1.008-.5c-1.512,0-3.744,2.3-3.744,4.392a2.577,2.577,0,0,0,.864,2.016c3.384,3.168,4.32,5.544,5.472,9.793a35.354,35.354,0,0,1,1.584,9.721c0,1.512-.144,3.1-0.288,5.112v0.36c0,1.872,1.008,2.592,2.3,2.592a5.036,5.036,0,0,0,3.169-1.368c2.736-2.592,2.664-4.392,3.744-7.345a7.141,7.141,0,0,1,6.7-4.392,7.254,7.254,0,0,1,1.8.216c4.176,1.008,5.472,2.88,5.472,5.041a9.73,9.73,0,0,1-.864,3.6c-1.944,4.824-5.76,5.977-10.513,8.065a2.419,2.419,0,0,1-1.08.288c-1.8,0-.576-3.816-2.952-3.744h-0.144c-2.736.072-2.88,3.528-3.456,6.192a2.954,2.954,0,0,0-.072.792c0,1.728,1.584,2.376,3.456,2.376a9.81,9.81,0,0,0,3.672-.72c7.561-3.1,14.113-5.544,16.562-13.537A12.388,12.388,0,0,0,215.785,58.743ZM257.9,71.56A1.565,1.565,0,0,0,256.32,69.9c-0.144,0-.288.072-0.432,0.072a44.775,44.775,0,0,1-8.136.936,27.252,27.252,0,0,1-6.841-.936c-4.464-1.152-10.3-3.1-10.3-7.777,0-.576.072-1.8,0.72-1.8a1.18,1.18,0,0,1,.792.5,3.675,3.675,0,0,0,3.1,1.224,13.79,13.79,0,0,0,5.256-1.368c5.328-2.376,9.361-1.8,13.681-6.048a6.334,6.334,0,0,0,2.088-4.608,5.431,5.431,0,0,0-3.1-4.9,13.136,13.136,0,0,0-6.12-1.584c-3.673,0-7.345,1.584-11.017,3.888-5.545,3.528-9.361,6.625-10.657,13.537a7.9,7.9,0,0,0-.144,1.8c0,6.265,6.48,9.433,12.673,11.449a25.035,25.035,0,0,0,7.776,1.08c4.249,0,8.785-.792,11.665-2.664A1.306,1.306,0,0,0,257.9,71.56Zm-7.057-21.026a1.812,1.812,0,0,1-.864,1.584c-5.761,4.32-13.105,4.176-16.994,5.761a2.489,2.489,0,0,1-.864.216,0.627,0.627,0,0,1-.648-0.72,2.161,2.161,0,0,1,.648-1.368,27.032,27.032,0,0,1,16.562-7.633A2.267,2.267,0,0,1,250.848,50.534Zm43.559,22.538a2.65,2.65,0,0,0-1.872-2.232c-3.024-1.3-2.664-15.193-5.832-20.306a5.668,5.668,0,0,0-4.1-2.448,1.5,1.5,0,0,0-1.512.936c-1.512,3.888-1.656,5.328-4.1,7.777a2.931,2.931,0,0,1-1.728,1.008c-0.648,0-1.224-.576-1.513-1.872-1.152-4.608-.432-10.3-2.592-11.449a2.839,2.839,0,0,0-1.44-.36c-2.3,0-4.392,2.592-4.392,4.248a1.535,1.535,0,0,0,.216.864c2.088,2.952,3.456,7.7,3.456,12.889v1.224c0,1.44,1.008,4.9,3.6,4.9a4.376,4.376,0,0,0,2.449-.864c3.24-2.16,2.952-6.337,5.616-9.721a1.87,1.87,0,0,1,1.3-.936c0.576,0,1.3.648,2.16,2.232,2.161,3.744-.648,13.465,5.4,16.2a4.69,4.69,0,0,0,1.872.432A2.836,2.836,0,0,0,294.407,73.072Zm42.12-25.058c0-2.808-2.088-3.96-4.248-3.96a4.105,4.105,0,0,0-.936.072c-8.353,1.224-9,1.008-14.329,3.024-6.625,2.52-14.33,5.112-14.762,12.673v0.792c0,7.345,6.121,11.377,14.258,13.465a12.406,12.406,0,0,0,3.168.432c3.816,0,7.2-1.584,9.937-2.736,1.368-.576,1.944-1.3,1.944-2.016a1.78,1.78,0,0,0-2.016-1.44h-0.36c-3.457.432-4.9,1.8-8.065,1.8a13.734,13.734,0,0,1-3.168-.36c-4.9-1.08-10.729-4.968-10.729-8.569a1.994,1.994,0,0,1,.072-0.648c1.152-5.328,5.616-6.841,10.657-9.073,3.384-1.512,8.208-2.88,11.161-2.88,1.512,0,2.592.288,2.808,1.152a2.463,2.463,0,0,0,2.3,1.944,2.161,2.161,0,0,0,2.016-1.8A6.592,6.592,0,0,0,336.527,48.014Zm39.312,22.61a3.481,3.481,0,0,0-.432-1.512c-4.392-8.137-6.408-18-8.425-22.034-0.72-1.368-1.512-2.088-2.448-2.088a3.937,3.937,0,0,0-2.736,1.656c-4.464,5.113-6.265,9.649-10.153,14.041a0.743,0.743,0,0,1-.576.288c-0.72,0-1.44-1.224-1.584-2.88-0.36-3.744-.576-9.433-0.576-14.761,0-5.76.216-11.017,0.792-12.673a1.993,1.993,0,0,0,.072-0.648c0-1.656-2.3-3.024-4.1-3.024-1.081,0-1.945.432-2.017,1.512a56.737,56.737,0,0,0-.288,6.193c0,11.737,2.233,26.714,2.665,35.5,0.072,1.008,1.008,1.44,2.088,1.44a3.952,3.952,0,0,0,2.664-1.008c2.808-2.808,2.592-5.617,5.184-8.425a36.507,36.507,0,0,0,5.617-7.993,1.463,1.463,0,0,1,1.368-.936,1.888,1.888,0,0,1,1.656,1.152c1.44,3.456.864,5.112,2.376,7.993a28.408,28.408,0,0,1,3.457,10.369,1.405,1.405,0,0,0,1.584,1.008C373.607,73.792,375.839,72.64,375.839,70.624Zm28.51-16.2a10.907,10.907,0,0,0-10.8-10.441,7.825,7.825,0,0,0-1.3.072c-3.96.5-8.712,3.384-8.712,6.193a2.45,2.45,0,0,0,.072.72,32.732,32.732,0,0,1,1.3,9.5c0,3.816-.432,7.345-0.432,11.017a25.6,25.6,0,0,0,2.592,11.881c1.008,2.016,1.872,2.808,2.592,2.808,0.864,0,1.584-1.08,2.16-2.592a11.945,11.945,0,0,0,.72-4.032c0-3.168-1.224-6.049-1.224-9.5a12.024,12.024,0,0,1,.288-2.664,2.554,2.554,0,0,1,2.592-2.16C398.229,64.791,404.421,60.183,404.349,54.422ZM399.6,55c0,2.88-2.952,4.392-5.833,5.041a10.634,10.634,0,0,1-1.728.288c-1.656,0-1.44-1.368-1.728-5.473V54.062c0-1.944.5-4.032,2.808-4.032a3.505,3.505,0,0,1,.864.072c2.737,0.5,5.4,1.728,5.617,4.536V55Zm34.92-3.816a2.758,2.758,0,0,0-.648-1.944,6.239,6.239,0,0,0-4.609-1.728,10.829,10.829,0,0,0-2.088.216c-4.68,1.008-3.384,4.968-4.968,8.425a1.523,1.523,0,0,1-1.3,1.08,1.383,1.383,0,0,1-1.3-1.08c-0.865-4.176-.072-5.112-3.889-7.993a2.657,2.657,0,0,0-1.656-.5,2.458,2.458,0,0,0-2.448,1.584,5.56,5.56,0,0,0-.144,1.08c0,2.952,2.808,5.761,4.032,9.5,1.08,3.384,1.728,5.184,2.592,8.641a2.574,2.574,0,0,0,2.521,1.944,2.863,2.863,0,0,0,2.664-1.728c2.16-5.256.936-9.289,4.1-14.041a2.521,2.521,0,0,1,2.232-1.368,5.887,5.887,0,0,1,2.089.5,1.687,1.687,0,0,0,.792.144C433.869,53.918,434.517,52.55,434.517,51.182ZM474.766,71.56a1.564,1.564,0,0,0-1.584-1.656c-0.145,0-.289.072-0.433,0.072a44.775,44.775,0,0,1-8.136.936,27.258,27.258,0,0,1-6.841-.936c-4.464-1.152-10.3-3.1-10.3-7.777,0-.576.072-1.8,0.72-1.8a1.18,1.18,0,0,1,.792.5,3.676,3.676,0,0,0,3.1,1.224,13.79,13.79,0,0,0,5.256-1.368c5.329-2.376,9.361-1.8,13.681-6.048a6.334,6.334,0,0,0,2.088-4.608,5.431,5.431,0,0,0-3.1-4.9,13.136,13.136,0,0,0-6.12-1.584c-3.673,0-7.345,1.584-11.017,3.888-5.545,3.528-9.361,6.625-10.657,13.537a7.9,7.9,0,0,0-.144,1.8c0,6.265,6.48,9.433,12.673,11.449a25.037,25.037,0,0,0,7.777,1.08c4.248,0,8.784-.792,11.665-2.664A1.308,1.308,0,0,0,474.766,71.56Zm-7.057-21.026a1.812,1.812,0,0,1-.864,1.584c-5.761,4.32-13.105,4.176-16.994,5.761a2.489,2.489,0,0,1-.864.216,0.627,0.627,0,0,1-.648-0.72,2.161,2.161,0,0,1,.648-1.368,27.032,27.032,0,0,1,16.562-7.633A2.267,2.267,0,0,1,467.709,50.534Zm36-3.312c0-2.232-1.152-3.888-4.753-4.9a2.967,2.967,0,0,0-.864-0.072c-3.168,0-8.929,3.456-12.529,5.04a4.3,4.3,0,0,0-2.592,4.1,6.913,6.913,0,0,0,.432,2.376c1.3,3.816,6.192,3.888,11.233,10.8a5.788,5.788,0,0,1,1.44,3.024,2.015,2.015,0,0,1-1.224,1.728,11.428,11.428,0,0,1-5.545,1.8,5.969,5.969,0,0,1-2.448-.5,3.339,3.339,0,0,0-1.368-.288,2.3,2.3,0,0,0-2.448,2.232,3.754,3.754,0,0,0,2.088,3.024,5.129,5.129,0,0,0,2.736.648c4.321,0,10.945-2.808,13.033-4.752a5.1,5.1,0,0,0,1.729-3.816,5.78,5.78,0,0,0-1.3-3.528c-3.6-4.536-6.049-6.624-10.369-10.8a1.817,1.817,0,0,1-.432-1.224,1.154,1.154,0,0,1,.648-1.152,43.338,43.338,0,0,0,5.184-2.592,1.877,1.877,0,0,1,.792-0.216,1.717,1.717,0,0,1,1.656,1.944c0,0.216-.072.432-0.072,0.648v0.144c0,0.5.36,0.648,0.864,0.648,1.3,0,3.6-1.3,3.889-2.52A8.167,8.167,0,0,0,503.708,47.222Zm28.367,0c0-2.232-1.152-3.888-4.752-4.9a2.967,2.967,0,0,0-.864-0.072c-3.168,0-8.929,3.456-12.529,5.04a4.3,4.3,0,0,0-2.592,4.1,6.889,6.889,0,0,0,.432,2.376c1.3,3.816,6.192,3.888,11.232,10.8a5.782,5.782,0,0,1,1.441,3.024,2.015,2.015,0,0,1-1.224,1.728,11.434,11.434,0,0,1-5.545,1.8,5.969,5.969,0,0,1-2.448-.5,3.339,3.339,0,0,0-1.368-.288,2.3,2.3,0,0,0-2.448,2.232,3.754,3.754,0,0,0,2.088,3.024,5.129,5.129,0,0,0,2.736.648c4.32,0,10.945-2.808,13.033-4.752A5.105,5.105,0,0,0,531,67.672a5.78,5.78,0,0,0-1.3-3.528c-3.6-4.536-6.048-6.624-10.369-10.8a1.817,1.817,0,0,1-.432-1.224,1.154,1.154,0,0,1,.648-1.152,43.358,43.358,0,0,0,5.185-2.592,1.877,1.877,0,0,1,.792-0.216,1.717,1.717,0,0,1,1.656,1.944c0,0.216-.072.432-0.072,0.648v0.144c0,0.5.36,0.648,0.864,0.648,1.3,0,3.6-1.3,3.888-2.52A8.167,8.167,0,0,0,532.075,47.222Z"/>
  <path id="_--_--_" data-name="&lt;!--                 --&gt;" class="cls-2" d="M72.767,72.574a28.76,28.76,0,0,1-.144-4.536c0-1.224-3.528-1.872-3.744-2.592-0.216-.648-2.232-0.864-2.232-1.3s-2.808-.576-2.808-1.08c0-.576-1.872-1.224-2.952-1.224a3.843,3.843,0,0,1-2.664-1.152c-0.432-.5-2.952-1.008-3.168-1.3a4.848,4.848,0,0,0-2.664-1.224c-0.792,0-1.8-1.872-1.8-2.52,0-.72,1.728-1.656,1.8-2.3,0.144-.576,1.656-1.08,1.656-1.728,0-.576,1.512-1.3,1.728-2.088a4.113,4.113,0,0,1,1.944-2.16c0.576-.216.5-1.944,1.512-2.088,1.008-.216,1.8-1.656,2.3-3.1,0.576-1.44,2.952-2.3,3.312-3.024,0.288-.72,2.376-2.16,2.376-2.88,0-.648.864-2.016,0.864-2.592,0-.648-2.16-2.16-2.952-2.16-1.008,0-2.52,2.448-3.24,2.52-0.72.144-.864,1.944-1.728,1.944a2.458,2.458,0,0,0-2.16,1.728c-0.288.936-2.3,2.376-2.664,3.6-0.288,1.152-.5,1.728-1.08,1.728-0.648,0-2.016,1.8-2.664,3.024-0.576,1.224-4.032,3.672-4.968,4.176s-1.44,2.088-2.3,2.736c-0.936.576-1.152,1.512-1.152,4.248s2.52,3.384,2.664,3.96c0.072,0.648,1.944.72,2.088,1.224,0.216,0.5,2.16.792,2.376,1.224s3.24,1.224,3.24,2.016c0,0.864,4.68.72,4.752,1.224,0.144,0.5,2.088.648,2.376,1.3,0.288,0.72,3.168.576,3.168,1.224,0,0.72,2.3.72,2.808,1.656a11.242,11.242,0,0,0,2.016,2.16,4.1,4.1,0,0,0,2.448,1.08C71.615,74.3,72.983,73.222,72.767,72.574Zm22.678-17.93c0.288-1.512-.432-4.9-0.432-5.976A63.882,63.882,0,0,0,94,41.54a15.965,15.965,0,0,1,0-5.616,2.358,2.358,0,0,0-.864-2.448,7.4,7.4,0,0,0-3.6-1.008c-2.3,0-1.8,2.736-1.944,5.328-0.072,2.592.144,5.832,0.5,5.832,0.432,0,1.152,9.289,1.224,10.585a28.5,28.5,0,0,1-.72,6.841,1.692,1.692,0,0,0,2.16,1.872c1.656-.288,1.944.792,2.88,0.792,0.864,0,.5-1.152,1.584-1.152,0.648,0-.5-1.872-1.224-2.088s-0.5-1.08.432-1.44S95.157,56.157,95.445,54.645Zm3.528,17.93a5.48,5.48,0,0,0-.864-3.24c-0.5-.72-1.44-1.728-2.088-0.792-0.576.864-1.872-.432-2.52-0.432-1.08,0-2.016,1.728-2.016,2.664,0,0.864,1.3,1.3,1.3,2.016a2.4,2.4,0,0,0,2.448,1.944c1.512,0,1.656,1.008,2.232,1.008C98.109,75.743,98.9,73.582,98.973,72.574ZM133.1,61.917c0-.648-0.72-1.44-0.72-2.376s-1.44-2.808-2.016-3.24c-0.648-.432-1.224-0.216-1.152.072,0.072,0.36-1.944,0-2.808.216a40.549,40.549,0,0,1-5.4.5,25.625,25.625,0,0,0-4.9,1.008c-1.008.36-2.3-.36-2.88-0.36-0.648,0-1.512,1.224-1.512,2.808,0,1.656,2.232,3.888,3.384,3.888,1.08,0,2.016-.648,2.664-0.648,0.576,0,4.608-.576,5.256-0.576,0.577,0,4.177-.72,5.113-0.72,0.864,0,1.656,1.008,2.52,1.008C131.445,63.5,133.1,62.493,133.1,61.917Zm32.976,0c0-.648-0.72-1.44-0.72-2.376s-1.441-2.808-2.017-3.24c-0.648-.432-1.224-0.216-1.152.072,0.072,0.36-1.944,0-2.808.216a40.533,40.533,0,0,1-5.4.5,25.619,25.619,0,0,0-4.9,1.008c-1.008.36-2.3-.36-2.88-0.36-0.648,0-1.512,1.224-1.512,2.808,0,1.656,2.232,3.888,3.384,3.888,1.08,0,2.016-.648,2.664-0.648,0.576,0,4.609-.576,5.257-0.576,0.576,0,4.176-.72,5.112-0.72,0.864,0,1.656,1.008,2.52,1.008C164.42,63.5,166.077,62.493,166.077,61.917Zm403.835,0c0-.648-0.72-1.44-0.72-2.376s-1.44-2.808-2.016-3.24c-0.648-.432-1.224-0.216-1.152.072,0.072,0.36-1.944,0-2.808.216a40.533,40.533,0,0,1-5.4.5,25.625,25.625,0,0,0-4.9,1.008c-1.008.36-2.3-.36-2.88-0.36-0.648,0-1.512,1.224-1.512,2.808,0,1.656,2.232,3.888,3.384,3.888,1.08,0,2.016-.648,2.664-0.648,0.576,0,4.609-.576,5.257-0.576,0.576,0,4.176-.72,5.112-0.72,0.864,0,1.656,1.008,2.52,1.008C568.256,63.5,569.912,62.493,569.912,61.917Zm32.976,0c0-.648-0.72-1.44-0.72-2.376s-1.441-2.808-2.017-3.24c-0.648-.432-1.224-0.216-1.152.072,0.072,0.36-1.944,0-2.808.216a40.533,40.533,0,0,1-5.4.5,25.635,25.635,0,0,0-4.9,1.008c-1.008.36-2.3-.36-2.88-0.36-0.648,0-1.512,1.224-1.512,2.808,0,1.656,2.232,3.888,3.384,3.888,1.08,0,2.016-.648,2.664-0.648,0.576,0,4.609-.576,5.257-0.576,0.576,0,4.176-.72,5.112-0.72,0.864,0,1.656,1.008,2.52,1.008C601.232,63.5,602.888,62.493,602.888,61.917ZM644,49.892c0-1.512-3.529-3.672-5.545-3.888-2.016-.144-3.168-2.016-4.464-2.52-1.368-.5-2.592-1.44-4.465-1.728-1.944-.288-2.376-2.736-3.456-2.3-1.152.36-1.152-1.008-2.232-1.44-1.152-.432-1.872-1.3-2.808-1.3-0.864,0-1.872-1.224-2.377-1.872a4.336,4.336,0,0,0-3.168-1.08c-0.648,0-2.232.288-2.232,2.52s2.736,3.168,2.952,3.888c0.216,0.648,2.016,1.728,2.736,1.872,0.721,0.216,2.017,1.224,2.737,1.44S623.19,45,624.342,45c1.08,0,2.232,1.512,3.456,1.728a4.457,4.457,0,0,1,2.737,1.872c0.288,0.576,2.808.288,3.024,1.008S635,50.4,635,51.188c0,0.864-1.944,1.224-2.376,2.232-0.36,1.08-1.8,1.872-1.872,3.456-0.144,1.656-1.657,1.368-1.729,2.232-0.144.936-1.08,0.864-1.44,1.944-0.432,1.152-2.016,1.944-2.664,2.736-0.576.864-1.44,2.592-2.232,2.952a4.7,4.7,0,0,0-1.728,3.384c0,1.224,1.224,3.168,1.944,2.736s1.3,0.288,2.016.288,3.528-2.448,3.528-3.312c0-.936,1.656-1.224,1.728-2.088,0.144-.792,1.873-1.08,1.873-1.8s1.3-2.3,1.728-3.024c0.36-.72,1.728-1.224,1.8-2.232,0.144-1.08,1.872-2.088,1.944-2.808,0.072-.648,3.24-3.384,4.1-4.32C642.416,52.629,644,51.4,644,49.892Z"/>
</svg>
